<svg height="512pt" viewBox="-89 0 512 512" width="512pt" xmlns="http://www.w3.org/2000/svg"><path d="m289.554688 407.210938v-54.855469c0-39.105469-18.328126-73.949219-46.796876-96.355469 28.46875-22.410156 46.796876-57.253906 46.796876-96.355469v-54.84375c25.144531-3.996093 44.429687-25.832031 44.429687-52.082031 0-29.066406-23.652344-52.71875-52.730469-52.71875h-228.523437c-29.078125 0-52.730469 23.652344-52.730469 52.71875 0 26.25 19.285156 48.085938 44.425781 52.082031v54.84375c0 39.105469 18.332031 73.949219 46.800781 96.355469-28.472656 22.410156-46.800781 57.253906-46.800781 96.355469v54.855469c-25.140625 3.984374-44.425781 25.820312-44.425781 52.070312 0 29.066406 23.652344 52.71875 52.730469 52.71875h228.523437c29.078125 0 52.730469-23.652344 52.730469-52.71875 0-26.25-19.285156-48.085938-44.429687-52.070312zm-258.730469 52.070312c0-12.179688 9.929687-21.90625 21.90625-21.90625h228.523437c11.96875 0 21.90625 9.722656 21.90625 21.90625 0 12.074219-9.824218 21.894531-21.90625 21.894531h-228.523437c-12.085938 0-21.90625-9.820312-21.90625-21.894531zm44.425781-106.925781c0-35.367188 19.757812-66.980469 51.570312-82.503907 11.519532-5.617187 11.503907-22.09375 0-27.703124-31.8125-15.523438-51.570312-47.136719-51.570312-82.503907v-54.195312h183.484375v54.195312c0 35.367188-19.757813 66.980469-51.570313 82.503907-11.519531 5.617187-11.503906 22.09375 0 27.703124 31.8125 15.523438 51.570313 47.136719 51.570313 82.503907v54.195312h-183.484375zm-44.425781-299.636719c0-12.074219 9.820312-21.894531 21.90625-21.894531h228.523437c12.082032 0 21.90625 9.820312 21.90625 21.894531 0 12.179688-9.929687 21.90625-21.90625 21.90625-11.199218 0-216.929687 0-228.523437 0-11.96875 0-21.90625-9.722656-21.90625-21.90625zm0 0"/><path d="m203.980469 349.519531c-8.507813 0-15.414063 6.894531-15.414063 15.410157 0 8.507812 6.90625 15.414062 15.414063 15.414062 8.507812 0 15.410156-6.90625 15.410156-15.414062 0-8.515626-6.902344-15.410157-15.410156-15.410157zm0 0"/><path d="m130.003906 349.519531c-8.507812 0-15.414062 6.894531-15.414062 15.410157 0 8.507812 6.90625 15.414062 15.414062 15.414062 8.507813 0 15.410156-6.90625 15.410156-15.414062 0-8.515626-6.902343-15.410157-15.410156-15.410157zm0 0"/><path d="m166.992188 312.53125c-8.507813 0-15.414063 6.894531-15.414063 15.410156 0 8.507813 6.90625 15.414063 15.414063 15.414063 8.507812 0 15.410156-6.90625 15.410156-15.414063 0-8.515625-6.902344-15.410156-15.410156-15.410156zm0 0"/><path d="m148.980469 152.863281c6.492187-6.492187 6.492187-17.011719 0-23.507812-6.492188-6.492188-17.023438-6.492188-23.519531 0-6.492188 6.496093-6.492188 17.015625 0 23.507812 6.496093 6.503907 17.027343 6.503907 23.519531 0zm0 0"/><path d="m208.519531 212.40625c6.496094-6.496094 6.496094-17.015625 0-23.507812-6.492187-6.496094-17.023437-6.496094-23.515625 0-6.496094 6.492187-6.496094 17.011718 0 23.507812 6.492188 6.503906 17.023438 6.503906 23.515625 0zm0 0"/><path d="m205.820312 132.058594c-6.023437-6.019532-15.773437-6.019532-21.792968 0l-55.863282 55.851562c-6.019531 6.019532-6.019531 15.78125 0 21.804688 5.992188 5.992187 15.757813 6.035156 21.792969 0l55.863281-55.863282c6.019532-6.023437 6.019532-15.78125 0-21.792968zm0 0"/></svg>